# Blender v2.78 (sub 0) OBJ File: 'Cenario_Divisoria_Vidro.blend'
# www.blender.org
mtllib Cenario_Divisoria_Vidro.mtl
o Divisoria_Normal__Cube.001
v -2.999641 1.087907 0.024924
v -2.999641 2.217907 0.024924
v -2.999641 1.087907 -0.025076
v -2.999641 2.217907 -0.025076
v -1.529641 1.087907 0.024924
v -1.529641 2.217907 0.024924
v -1.529641 1.087907 -0.025076
v -1.529641 2.217907 -0.025076
v 1.499587 1.087907 0.024924
v 1.499587 2.217907 0.024924
v 1.499587 1.087907 -0.025076
v 1.499587 2.217907 -0.025076
v 2.969587 1.087907 0.024924
v 2.969587 2.217907 0.024924
v 2.969587 1.087907 -0.025076
v 2.969587 2.217907 -0.025076
v 0.000409 1.087907 0.024924
v 0.000409 2.217907 0.024924
v 0.000409 1.087907 -0.025076
v 0.000409 2.217907 -0.025076
v 1.470409 1.087907 0.024924
v 1.470409 2.217907 0.024924
v 1.470409 1.087907 -0.025076
v 1.470409 2.217907 -0.025076
v -1.497311 1.087907 0.024924
v -1.497311 2.217907 0.024924
v -1.497311 1.087907 -0.025076
v -1.497311 2.217907 -0.025076
v -0.027311 1.087907 0.024924
v -0.027311 2.217907 0.024924
v -0.027311 1.087907 -0.025076
v -0.027311 2.217907 -0.025076
v -3.000000 -0.153607 0.050000
v -3.000000 2.846393 0.050000
v -3.000000 -0.153607 -0.050000
v -3.000000 2.846393 -0.050000
v 3.000000 -0.153607 0.050000
v 3.000000 2.846393 0.050000
v 3.000000 -0.153607 -0.050000
v 3.000000 2.846393 -0.050000
v 1.505859 -0.153607 -0.050000
v 0.005859 -0.153607 -0.050000
v -1.494141 -0.153607 -0.050000
v -1.494141 2.846393 -0.050000
v 0.005859 2.846393 -0.050000
v 1.505859 2.846393 -0.050000
v -1.494141 -0.153607 0.050000
v 0.005859 -0.153607 0.050000
v 1.505859 -0.153607 0.050000
v 1.505859 2.846393 0.050000
v 0.005859 2.846393 0.050000
v -1.494141 2.846393 0.050000
v -3.000000 2.246393 0.050000
v -3.000000 2.246393 -0.050000
v 3.000000 2.246393 -0.050000
v 3.000000 2.246393 0.050000
v 1.505859 2.246393 0.050000
v 0.005859 2.246393 0.050000
v -1.494141 2.246393 0.050000
v -1.494141 2.246393 -0.050000
v 0.005859 2.246393 -0.050000
v 1.505859 2.246393 -0.050000
v -1.531787 -0.153607 -0.050000
v -1.531787 2.846393 0.050000
v -1.531787 2.846393 -0.050000
v -1.531787 -0.153607 0.050000
v -1.531787 2.246393 -0.050000
v -1.531787 2.246393 0.050000
v -0.031641 -0.153607 -0.050000
v -0.031641 2.846393 -0.050000
v -0.031641 -0.153607 0.050000
v -0.031641 2.846393 0.050000
v -0.031641 2.246393 -0.050000
v -0.031641 2.246393 0.050000
v 1.468359 -0.153607 -0.050000
v 1.468359 2.846393 -0.050000
v 1.468359 -0.153607 0.050000
v 1.468359 2.846393 0.050000
v 1.468359 2.246393 -0.050000
v 1.468359 2.246393 0.050000
v 2.962646 2.846393 -0.050000
v 2.962646 -0.153607 0.050000
v 2.962646 -0.153607 -0.050000
v 2.962646 2.846393 0.050000
v 2.962646 2.246393 0.050000
v 2.962646 2.246393 -0.050000
v -3.000000 2.816393 0.050000
v -3.000000 2.816393 -0.050000
v 3.000000 2.816393 -0.050000
v 3.000000 2.816393 0.050000
v 1.505859 2.816393 0.050000
v 0.005859 2.816393 0.050000
v -1.494141 2.816393 0.050000
v -1.494141 2.816393 -0.050000
v 0.005859 2.816393 -0.050000
v 1.505859 2.816393 -0.050000
v -1.531787 2.816393 -0.050000
v -1.531787 2.816393 0.050000
v -0.031641 2.816393 -0.050000
v -0.031641 2.816393 0.050000
v 1.468359 2.816393 -0.050000
v 1.468359 2.816393 0.050000
v 2.962646 2.816393 0.050000
v 2.962646 2.816393 -0.050000
v -3.000000 -0.117607 -0.050000
v 3.000000 -0.117607 -0.050000
v 3.000000 -0.117607 0.050000
v 1.505859 -0.117607 0.050000
v 0.005859 -0.117607 0.050000
v -1.494141 -0.117607 0.050000
v -1.494141 -0.117607 -0.050000
v 0.005859 -0.117607 -0.050000
v 1.505859 -0.117607 -0.050000
v -3.000000 -0.117607 0.050000
v -1.531787 -0.117607 0.050000
v -1.531787 -0.117607 -0.050000
v -0.031641 -0.117607 0.050000
v -0.031641 -0.117607 -0.050000
v 1.468359 -0.117607 0.050000
v 1.468359 -0.117607 -0.050000
v 2.962646 -0.117607 -0.050000
v 2.962646 -0.117607 0.050000
v -3.000000 2.210933 0.050000
v -3.000000 2.210933 -0.050000
v 3.000000 2.210933 -0.050000
v 3.000000 2.210933 0.050000
v 1.505859 2.210933 0.050000
v 0.005859 2.210933 0.050000
v -1.494141 2.210933 0.050000
v -1.494141 2.210933 -0.050000
v 0.005859 2.210933 -0.050000
v 1.505859 2.210933 -0.050000
v -1.531787 2.210933 0.050000
v -1.531787 2.210933 -0.050000
v -0.031641 2.210933 0.050000
v -0.031641 2.210933 -0.050000
v 1.468359 2.210933 0.050000
v 1.468359 2.210933 -0.050000
v 2.962646 2.210933 -0.050000
v 2.962646 2.210933 0.050000
v -3.000000 1.090142 -0.050000
v 3.000000 1.090142 -0.050000
v 3.000000 1.090142 0.050000
v 1.505859 1.090142 0.050000
v 0.005859 1.090142 0.050000
v -1.494141 1.090142 0.050000
v -1.494141 1.090142 -0.050000
v 0.005859 1.090142 -0.050000
v 1.505859 1.090142 -0.050000
v -1.531787 1.090142 0.050000
v -1.531787 1.090142 -0.050000
v -0.031641 1.090142 0.050000
v -0.031641 1.090142 -0.050000
v 1.468359 1.090142 0.050000
v 1.468359 1.090142 -0.050000
v 2.962646 1.090142 -0.050000
v 2.962646 1.090142 0.050000
v -3.000000 1.090142 0.050000
v -3.000000 1.054157 -0.050000
v 3.000000 1.054157 -0.050000
v 3.000000 1.054157 0.050000
v 1.505859 1.054157 0.050000
v 0.005859 1.054157 0.050000
v -1.494141 1.054157 0.050000
v -1.494141 1.054157 -0.050000
v 0.005859 1.054157 -0.050000
v 1.505859 1.054157 -0.050000
v -1.531787 1.054157 0.050000
v -1.531787 1.054157 -0.050000
v -0.031641 1.054157 0.050000
v -0.031641 1.054157 -0.050000
v 1.468359 1.054157 0.050000
v 1.468359 1.054157 -0.050000
v 2.962646 1.054157 -0.050000
v 2.962646 1.054157 0.050000
v -3.000000 1.054157 0.050000
vt 0.4341 0.5358
vt 0.4361 0.5358
vt 0.4361 0.5429
vt 0.4341 0.5429
vt 0.2339 0.9637
vt 0.2360 0.9637
vt 0.2360 0.9664
vt 0.2339 0.9664
vt 0.0105 0.7568
vt 0.0105 0.7546
vt 0.0173 0.7546
vt 0.0173 0.7568
vt 0.2380 0.6465
vt 0.2360 0.6465
vt 0.2360 0.5429
vt 0.2380 0.5429
vt 0.0173 0.5455
vt 0.0173 0.5429
vt 0.0241 0.5429
vt 0.0241 0.5455
vt 0.0310 0.8628
vt 0.0310 0.9664
vt 0.0241 0.9664
vt 0.0241 0.8628
vt 0.0310 0.5455
vt 0.0310 0.6484
vt 0.0241 0.6484
vt 0.0241 0.5455
vt 0.0310 0.6510
vt 0.0310 0.7542
vt 0.0241 0.7542
vt 0.0241 0.6510
vt 0.0310 0.7569
vt 0.0310 0.8601
vt 0.0241 0.8601
vt 0.0241 0.7569
vt 0.0173 0.8628
vt 0.0173 0.8601
vt 0.0241 0.8601
vt 0.0241 0.8628
vt 0.0173 0.7569
vt 0.0173 0.7542
vt 0.0241 0.7542
vt 0.0241 0.7569
vt 0.0173 0.6510
vt 0.0173 0.6484
vt 0.0241 0.6484
vt 0.0241 0.6510
vt 0.2380 0.9637
vt 0.2360 0.9637
vt 0.2360 0.8609
vt 0.2380 0.8609
vt 0.2380 0.8583
vt 0.2360 0.8583
vt 0.2360 0.7551
vt 0.2380 0.7551
vt 0.2380 0.7524
vt 0.2360 0.7524
vt 0.2360 0.6492
vt 0.2380 0.6492
vt 0.2339 0.6465
vt 0.2360 0.6465
vt 0.2360 0.6492
vt 0.2339 0.6492
vt 0.2339 0.7524
vt 0.2360 0.7524
vt 0.2360 0.7551
vt 0.2339 0.7551
vt 0.2339 0.8583
vt 0.2360 0.8583
vt 0.2360 0.8609
vt 0.2339 0.8609
vt 0.1926 0.8583
vt 0.1950 0.8583
vt 0.1950 0.8609
vt 0.1926 0.8609
vt 0.1926 0.7524
vt 0.1950 0.7524
vt 0.1950 0.7551
vt 0.1926 0.7551
vt 0.1926 0.6465
vt 0.1950 0.6465
vt 0.1950 0.6492
vt 0.1926 0.6492
vt 0.2794 0.7524
vt 0.2770 0.7524
vt 0.2770 0.6492
vt 0.2794 0.6492
vt 0.2794 0.8583
vt 0.2770 0.8583
vt 0.2770 0.7551
vt 0.2794 0.7551
vt 0.2794 0.9637
vt 0.2770 0.9637
vt 0.2770 0.8609
vt 0.2794 0.8609
vt 0.2794 0.6465
vt 0.2770 0.6465
vt 0.2770 0.5429
vt 0.2794 0.5429
vt 0.0105 0.7995
vt 0.0105 0.7970
vt 0.0173 0.7970
vt 0.0173 0.7995
vt 0.1926 0.9637
vt 0.1950 0.9637
vt 0.1950 0.9664
vt 0.1926 0.9664
vt 0.4361 0.5358
vt 0.4385 0.5358
vt 0.4385 0.5429
vt 0.4361 0.5429
vt 0.1926 0.5429
vt 0.1950 0.5429
vt 0.2339 0.5429
vt 0.2360 0.5429
vt 0.0173 0.9664
vt 0.0241 0.9664
vt 0.2794 0.9664
vt 0.2770 0.9664
vt 0.2380 0.9664
vt 0.2360 0.9664
vt 0.0310 0.5429
vt 0.0241 0.5429
vt 0.2806 0.3637
vt 0.2804 0.3005
vt 0.4499 0.2998
vt 0.4502 0.3630
vt 0.2797 0.3005
vt 0.2794 0.2372
vt 0.4497 0.2365
vt 0.4499 0.2998
vt 0.2794 0.2372
vt 0.2792 0.1740
vt 0.4494 0.1733
vt 0.4497 0.2365
vt 0.4431 0.9111
vt 0.4434 0.9744
vt 0.4390 0.9744
vt 0.4387 0.9112
vt 0.2781 0.0737
vt 0.2778 0.0105
vt 0.4487 0.0098
vt 0.4490 0.0730
vt 0.9934 0.6571
vt 0.9937 0.7204
vt 0.8235 0.7211
vt 0.8232 0.6578
vt 0.4490 0.0730
vt 0.4492 0.1362
vt 0.2790 0.1370
vt 0.2788 0.0737
vt 0.2809 0.4269
vt 0.2806 0.3637
vt 0.4502 0.3630
vt 0.4504 0.4262
vt 0.8188 0.6579
vt 0.8191 0.7211
vt 0.6482 0.7218
vt 0.6480 0.6586
vt 0.0026 0.9728
vt 0.0026 0.9728
vt 0.0026 0.9728
vt 0.0026 0.9728
vt 0.4410 0.9664
vt 0.4385 0.9664
vt 0.4385 0.9637
vt 0.4410 0.9637
vt 0.0310 0.8609
vt 0.0334 0.8609
vt 0.0334 0.9637
vt 0.0310 0.9637
vt 0.0310 0.7551
vt 0.0334 0.7551
vt 0.0334 0.8583
vt 0.0310 0.8583
vt 0.4410 0.8609
vt 0.4385 0.8609
vt 0.4385 0.8583
vt 0.4410 0.8583
vt 0.0310 0.6492
vt 0.0334 0.6492
vt 0.0334 0.7524
vt 0.0310 0.7524
vt 0.4410 0.7551
vt 0.4385 0.7551
vt 0.4385 0.7524
vt 0.4410 0.7524
vt 0.0310 0.5429
vt 0.0334 0.5429
vt 0.0334 0.6465
vt 0.0310 0.6465
vt 0.4410 0.6492
vt 0.4385 0.6492
vt 0.4385 0.6465
vt 0.4410 0.6465
vt 0.4385 0.5358
vt 0.4410 0.5358
vt 0.4410 0.5429
vt 0.4385 0.5429
vt 0.0334 0.9664
vt 0.0310 0.9664
vt 0.0105 0.9664
vt 0.0105 0.9638
vt 0.0173 0.9638
vt 0.0173 0.9664
vt 0.4385 0.5429
vt 0.4410 0.5429
vt 0.3590 0.9664
vt 0.3590 0.9637
vt 0.3710 0.6250
vt 0.4030 0.6058
vt 0.3243 0.6489
vt 0.3346 0.6489
vt 0.3851 0.6410
vt 0.3492 0.6410
vt 0.4183 0.5882
vt 0.4181 0.5406
vt 0.3590 0.8609
vt 0.3590 0.8583
vt 0.3590 0.7551
vt 0.3590 0.7524
vt 0.3590 0.6492
vt 0.3590 0.6465
vt 0.1130 0.9637
vt 0.1130 0.9664
vt 0.0105 0.8817
vt 0.0173 0.8817
vt 0.4415 0.5822
vt 0.3888 0.5510
vt 0.3889 0.5824
vt 0.4414 0.5508
vt 0.1130 0.8583
vt 0.1130 0.6465
vt 0.1130 0.6492
vt 0.1130 0.7524
vt 0.1130 0.7551
vt 0.1130 0.8609
vt 0.0732 0.8583
vt 0.0732 0.8609
vt 0.0732 0.7524
vt 0.0732 0.7551
vt 0.0732 0.6465
vt 0.0732 0.6492
vt 0.3477 0.5857
vt 0.3656 0.5856
vt 0.3658 0.6285
vt 0.3479 0.6286
vt 0.3476 0.5425
vt 0.3654 0.5424
vt 0.3656 0.5853
vt 0.3477 0.5854
vt 0.3481 0.6714
vt 0.3660 0.6714
vt 0.3662 0.7140
vt 0.3483 0.7141
vt 0.4191 0.5422
vt 0.4370 0.5421
vt 0.4372 0.5852
vt 0.4193 0.5852
vt 0.0105 0.9227
vt 0.0173 0.9227
vt 0.0732 0.9637
vt 0.0732 0.9664
vt 0.0026 0.9728
vt 0.0026 0.9728
vt 0.0026 0.9728
vt 0.0026 0.9728
vt 0.3988 0.6492
vt 0.3988 0.6465
vt 0.4193 0.5852
vt 0.4372 0.5852
vt 0.4374 0.6282
vt 0.4195 0.6283
vt 0.3988 0.7551
vt 0.3988 0.7524
vt 0.4195 0.6283
vt 0.4374 0.6282
vt 0.4376 0.6711
vt 0.4197 0.6711
vt 0.3988 0.8609
vt 0.3988 0.8583
vt 0.3839 0.6713
vt 0.3660 0.6714
vt 0.3658 0.6285
vt 0.3837 0.6284
vt 0.4197 0.6711
vt 0.4376 0.6711
vt 0.4378 0.7137
vt 0.4199 0.7138
vt 0.3988 0.9664
vt 0.3988 0.9637
vt 0.7217 0.4967
vt 0.7895 0.4964
vt 0.7902 0.6580
vt 0.7224 0.6583
vt 0.7217 0.4967
vt 0.6540 0.4969
vt 0.6533 0.3347
vt 0.7211 0.3344
vt 0.7211 0.3344
vt 0.7888 0.3341
vt 0.7895 0.4964
vt 0.7217 0.4967
vt 0.7204 0.1715
vt 0.7881 0.1712
vt 0.7888 0.3341
vt 0.7211 0.3344
vt 0.0026 0.9728
vt 0.0026 0.9728
vt 0.7197 0.0086
vt 0.7875 0.0083
vt 0.7881 0.1712
vt 0.7204 0.1715
vt 0.4507 0.4978
vt 0.5185 0.4975
vt 0.5192 0.6591
vt 0.4514 0.6594
vt 0.4487 0.0098
vt 0.5165 0.0095
vt 0.5171 0.1717
vt 0.4494 0.1720
vt 0.4494 0.1733
vt 0.5171 0.1730
vt 0.5178 0.3353
vt 0.4501 0.3355
vt 0.3408 0.5279
vt 0.4294 0.6331
vt 0.4292 0.5803
vt 0.3410 0.5807
vt 0.3891 0.5400
vt 0.3246 0.6625
vt 0.3063 0.6625
vt 0.4467 0.6083
vt 0.3483 0.5595
vt 0.3895 0.5593
vt 0.2886 0.6073
vt 0.3018 0.6073
vt 0.3821 0.6344
vt 0.3820 0.5939
vt 0.4309 0.5618
vt 0.4201 0.5618
vt 0.4394 0.6284
vt 0.4057 0.6085
vt 0.3677 0.6664
vt 0.3569 0.6664
vt 0.4138 0.6323
vt 0.4136 0.5928
vt 0.2067 0.7873
vt 0.4135 0.5533
vt 0.4221 0.5527
vt 0.3980 0.5794
vt 0.3944 0.5794
vt 0.4222 0.5663
vt 0.0000 0.0000
vt 0.0000 0.0000
vt 0.0000 0.0000
vt 0.0000 0.0000
vt 0.0000 0.0000
vt 0.0000 0.0000
vt 0.0000 0.0000
vt 0.0000 0.0000
vt 0.0000 0.0000
vt 0.0000 0.0000
vt 0.0000 0.0000
vt 0.0000 0.0000
vt 0.0000 0.0000
vt 0.0000 0.0000
vt 0.0000 0.0000
vt 0.0000 0.0000
vt 0.0000 0.0000
vt 0.0000 0.0000
vt 0.0000 0.0000
vt 0.0000 0.0000
vt 0.0000 0.0000
vt 0.0000 0.0000
vt 0.0000 0.0000
vt 0.0000 0.0000
vt 0.0000 0.0000
vt 0.0000 0.0000
vt 0.0000 0.0000
vt 0.0000 0.0000
vt 0.0000 0.0000
vt 0.0000 0.0000
vt 0.0000 0.0000
vt 0.0000 0.0000
vn -1.0000 0.0000 0.0000
vn 0.0000 0.0000 -1.0000
vn 1.0000 0.0000 0.0000
vn 0.0000 0.0000 1.0000
vn 0.0000 -1.0000 0.0000
vn 0.0000 1.0000 0.0000
usemtl Material
s off
f 87/1/1 34/2/1 36/3/1 88/4/1
f 104/5/2 81/6/2 40/7/2 89/8/2
f 89/9/3 40/10/3 38/11/3 90/12/3
f 98/13/4 64/14/4 34/15/4 87/16/4
f 83/17/5 39/18/5 37/19/5 82/20/5
f 65/21/6 36/22/6 34/23/6 64/24/6
f 81/25/6 46/26/6 50/27/6 84/28/6
f 76/29/6 45/30/6 51/31/6 78/32/6
f 70/33/6 44/34/6 52/35/6 72/36/6
f 63/37/5 43/38/5 47/39/5 66/40/5
f 69/41/5 42/42/5 48/43/5 71/44/5
f 75/45/5 41/46/5 49/47/5 77/48/5
f 103/49/4 84/50/4 50/51/4 91/52/4
f 102/53/4 78/54/4 51/55/4 92/56/4
f 100/57/4 72/58/4 52/59/4 93/60/4
f 97/61/2 65/62/2 44/63/2 94/64/2
f 99/65/2 70/66/2 45/67/2 95/68/2
f 101/69/2 76/70/2 46/71/2 96/72/2
f 138/73/2 79/74/2 62/75/2 132/76/2
f 136/77/2 73/78/2 61/79/2 131/80/2
f 134/81/2 67/82/2 60/83/2 130/84/2
f 135/85/4 74/86/4 59/87/4 129/88/4
f 137/89/4 80/90/4 58/91/4 128/92/4
f 140/93/4 85/94/4 57/95/4 127/96/4
f 133/97/4 68/98/4 53/99/4 123/100/4
f 125/101/3 55/102/3 56/103/3 126/104/3
f 139/105/2 86/106/2 55/107/2 125/108/2
f 123/109/1 53/110/1 54/111/1 124/112/1
f 129/88/4 59/87/4 68/98/4 133/97/4
f 124/113/2 54/114/2 67/82/2 134/81/2
f 88/115/2 36/116/2 65/62/2 97/61/2
f 35/117/5 63/37/5 66/40/5 33/118/5
f 44/34/6 65/21/6 64/24/6 52/35/6
f 93/60/4 52/59/4 64/14/4 98/13/4
f 128/92/4 58/91/4 74/86/4 135/85/4
f 130/84/2 60/83/2 73/78/2 136/77/2
f 94/64/2 44/63/2 70/66/2 99/65/2
f 92/56/4 51/55/4 72/58/4 100/57/4
f 43/38/5 69/41/5 71/44/5 47/39/5
f 45/30/6 70/33/6 72/36/6 51/31/6
f 127/96/4 57/95/4 80/90/4 137/89/4
f 131/80/2 61/79/2 79/74/2 138/73/2
f 95/68/2 45/67/2 76/70/2 101/69/2
f 91/52/4 50/51/4 78/54/4 102/53/4
f 42/42/5 75/45/5 77/48/5 48/43/5
f 46/26/6 76/29/6 78/32/6 50/27/6
f 132/76/2 62/75/2 86/106/2 139/105/2
f 126/119/4 56/120/4 85/94/4 140/93/4
f 90/121/4 38/122/4 84/50/4 103/49/4
f 40/123/6 81/25/6 84/28/6 38/124/6
f 41/46/5 83/17/5 82/20/5 49/47/5
f 96/72/2 46/71/2 81/6/2 104/5/2
f 62/125/2 96/126/2 104/127/2 86/128/2
f 56/120/4 90/121/4 103/49/4 85/94/4
f 57/95/4 91/52/4 102/53/4 80/90/4
f 61/129/2 95/130/2 101/131/2 79/132/2
f 58/91/4 92/56/4 100/57/4 74/86/4
f 60/133/2 94/134/2 99/135/2 73/136/2
f 59/137/4 93/138/4 98/139/4 68/140/4
f 54/141/2 88/142/2 97/143/2 67/144/2
f 79/74/2 101/69/2 96/72/2 62/75/2
f 73/78/2 99/65/2 95/68/2 61/79/2
f 67/82/2 97/61/2 94/64/2 60/83/2
f 74/145/4 100/146/4 93/147/4 59/148/4
f 80/149/4 102/150/4 92/151/4 58/152/4
f 85/153/4 103/154/4 91/155/4 57/156/4
f 68/157/4 98/158/4 87/159/4 53/160/4
f 55/102/3 89/9/3 90/12/3 56/103/3
f 86/106/2 104/5/2 89/8/2 55/107/2
f 53/161/1 87/162/1 88/163/1 54/164/1
f 37/165/4 107/166/4 122/167/4 82/168/4
f 41/169/2 113/170/2 121/171/2 83/172/2
f 42/173/2 112/174/2 120/175/2 75/176/2
f 49/177/4 108/178/4 119/179/4 77/180/4
f 43/181/2 111/182/2 118/183/2 69/184/2
f 48/185/4 109/186/4 117/187/4 71/188/4
f 35/189/2 105/190/2 116/191/2 63/192/2
f 47/193/4 110/194/4 115/195/4 66/196/4
f 33/197/1 114/198/1 105/199/1 35/200/1
f 83/172/2 121/171/2 106/201/2 39/202/2
f 39/203/3 106/204/3 107/205/3 37/206/3
f 66/196/4 115/195/4 114/207/4 33/208/4
f 82/168/4 122/167/4 108/178/4 49/177/4
f 77/180/4 119/179/4 109/186/4 48/185/4
f 71/188/4 117/187/4 110/194/4 47/193/4
f 63/192/2 116/191/2 111/182/2 43/181/2
f 69/184/2 118/183/2 112/174/2 42/173/2
f 75/176/2 120/175/2 113/170/2 41/169/2
f 143/209/4 126/119/4 140/93/4 157/210/4
f 144/211/3 149/212/3 132/213/3 127/214/3
f 154/215/6 155/216/6 148/217/6 145/218/6
f 144/219/4 127/96/4 137/89/4 154/220/4
f 145/221/4 128/92/4 135/85/4 152/222/4
f 146/223/4 129/88/4 133/97/4 150/224/4
f 156/225/2 139/105/2 125/108/2 142/226/2
f 142/227/3 125/101/3 126/104/3 143/228/3
f 157/229/6 156/230/6 149/231/6 144/232/6
f 154/220/1 137/89/1 138/73/1 155/233/1
f 151/234/2 134/81/2 130/84/2 147/235/2
f 153/236/2 136/77/2 131/80/2 148/237/2
f 155/233/2 138/73/2 132/76/2 149/238/2
f 173/239/2 155/233/2 149/238/2 167/240/2
f 171/241/2 153/236/2 148/237/2 166/242/2
f 169/243/2 151/234/2 147/235/2 165/244/2
f 170/245/4 152/246/4 146/247/4 164/248/4
f 172/249/4 154/250/4 145/251/4 163/252/4
f 175/253/4 157/254/4 144/255/4 162/256/4
f 168/257/4 150/258/4 158/259/4 176/260/4
f 160/261/3 142/227/3 143/228/3 161/262/3
f 174/263/2 156/225/2 142/226/2 160/264/2
f 176/265/1 158/266/1 141/267/1 159/268/1
f 164/269/4 146/223/4 150/224/4 168/270/4
f 159/271/2 141/272/2 151/273/2 169/274/2
f 163/275/4 145/221/4 152/222/4 170/276/4
f 165/277/2 147/278/2 153/279/2 171/280/2
f 162/281/4 144/219/4 154/220/4 172/282/4
f 166/283/2 148/284/2 155/285/2 173/286/2
f 167/287/2 149/288/2 156/289/2 174/290/2
f 161/291/4 143/209/4 157/210/4 175/292/4
f 107/166/4 161/291/4 175/292/4 122/167/4
f 113/293/2 167/294/2 174/295/2 121/296/2
f 112/297/2 166/298/2 173/299/2 120/300/2
f 108/178/4 162/281/4 172/282/4 119/179/4
f 111/301/2 165/302/2 171/303/2 118/304/2
f 109/186/4 163/275/4 170/276/4 117/187/4
f 105/305/2 159/306/2 169/307/2 116/308/2
f 110/194/4 164/269/4 168/270/4 115/195/4
f 114/309/1 176/265/1 159/268/1 105/310/1
f 121/171/2 174/263/2 160/264/2 106/201/2
f 106/204/3 160/261/3 161/262/3 107/205/3
f 115/311/4 168/312/4 176/313/4 114/314/4
f 122/315/4 175/316/4 162/317/4 108/318/4
f 119/319/4 172/320/4 163/321/4 109/322/4
f 117/323/4 170/324/4 164/325/4 110/326/4
f 116/191/2 169/243/2 165/244/2 111/182/2
f 118/183/2 171/241/2 166/242/2 112/174/2
f 120/175/2 173/239/2 167/240/2 113/170/2
f 152/327/6 153/328/6 147/329/6 146/330/6
f 152/331/1 135/332/1 136/333/1 153/334/1
f 130/84/5 136/77/5 135/85/5 129/88/5
f 146/335/3 147/336/3 130/337/3 129/338/3
f 145/339/3 148/340/3 131/341/3 128/342/3
f 131/80/5 138/73/5 137/89/5 128/92/5
f 132/76/5 139/105/5 140/93/5 127/96/5
f 156/343/1 157/344/1 140/345/1 139/346/1
f 151/347/6 141/348/6 158/349/6 150/350/6
f 150/351/1 133/352/1 134/353/1 151/354/1
f 133/97/5 123/100/5 124/112/5 134/81/5
usemtl Material.001
f 1/355/1 2/356/1 4/357/1 3/358/1
f 3/358/2 4/357/2 8/359/2 7/360/2
f 7/360/3 8/359/3 6/361/3 5/362/3
f 5/362/4 6/361/4 2/356/4 1/355/4
f 3/358/5 7/360/5 5/362/5 1/355/5
f 8/359/6 4/357/6 2/356/6 6/361/6
f 9/363/1 10/364/1 12/365/1 11/366/1
f 11/366/2 12/365/2 16/367/2 15/368/2
f 15/368/3 16/367/3 14/369/3 13/370/3
f 13/370/4 14/369/4 10/364/4 9/363/4
f 11/366/5 15/368/5 13/370/5 9/363/5
f 16/367/6 12/365/6 10/364/6 14/369/6
f 17/371/1 18/372/1 20/373/1 19/374/1
f 19/374/2 20/373/2 24/375/2 23/376/2
f 23/376/3 24/375/3 22/377/3 21/378/3
f 21/378/4 22/377/4 18/372/4 17/371/4
f 19/374/5 23/376/5 21/378/5 17/371/5
f 24/375/6 20/373/6 18/372/6 22/377/6
f 25/379/1 26/380/1 28/381/1 27/382/1
f 27/382/2 28/381/2 32/383/2 31/384/2
f 31/384/3 32/383/3 30/385/3 29/386/3
f 29/386/4 30/385/4 26/380/4 25/379/4
f 27/382/5 31/384/5 29/386/5 25/379/5
f 32/383/6 28/381/6 26/380/6 30/385/6
