# Blender v2.78 (sub 0) OBJ File: 'Cenario_Divisoria_Normal ERRATA.blend'
# www.blender.org
mtllib Cenario_Divisoria_Normal ERRATA.mtl
o Divisoria_Normal__Cube.001
v -3.000000 -1.500000 0.050000
v -3.000000 1.500000 0.050000
v -3.000000 -1.500000 -0.050000
v -3.000000 1.500000 -0.050000
v 3.000000 -1.500000 0.050000
v 3.000000 1.500000 0.050000
v 3.000000 -1.500000 -0.050000
v 3.000000 1.500000 -0.050000
v 1.505859 -1.500000 -0.050000
v 0.005859 -1.500000 -0.050000
v -1.494141 -1.500000 -0.050000
v -1.494141 1.500000 -0.050000
v 0.005859 1.500000 -0.050000
v 1.505859 1.500000 -0.050000
v -1.494141 -1.500000 0.050000
v 0.005859 -1.500000 0.050000
v 1.505859 -1.500000 0.050000
v 1.505859 1.500000 0.050000
v 0.005859 1.500000 0.050000
v -1.494141 1.500000 0.050000
v -3.000000 0.637759 0.050000
v -3.000000 0.637759 -0.050000
v 3.000000 0.637759 -0.050000
v 3.000000 0.637759 0.050000
v 1.505859 0.637759 0.050000
v 0.005859 0.637759 0.050000
v -1.494141 0.637759 0.050000
v -1.494141 0.637759 -0.050000
v 0.005859 0.637759 -0.050000
v 1.505859 0.637759 -0.050000
v -1.531787 -1.500000 -0.050000
v -1.531787 1.500000 0.050000
v -1.531787 1.500000 -0.050000
v -1.531787 -1.500000 0.050000
v -1.531787 0.637759 -0.050000
v -1.531787 0.637759 0.050000
v -0.031641 -1.500000 -0.050000
v -0.031641 1.500000 -0.050000
v -0.031641 -1.500000 0.050000
v -0.031641 1.500000 0.050000
v -0.031641 0.637759 -0.050000
v -0.031641 0.637759 0.050000
v 1.468359 -1.500000 -0.050000
v 1.468359 1.500000 -0.050000
v 1.468359 -1.500000 0.050000
v 1.468359 1.500000 0.050000
v 1.468359 0.637759 -0.050000
v 1.468359 0.637759 0.050000
v 2.962646 1.500000 -0.050000
v 2.962646 -1.500000 0.050000
v 2.962646 -1.500000 -0.050000
v 2.962646 1.500000 0.050000
v 2.962646 0.637759 0.050000
v 2.962646 0.637759 -0.050000
v -3.000000 1.470000 0.050000
v -3.000000 1.470000 -0.050000
v 3.000000 1.470000 -0.050000
v 3.000000 1.470000 0.050000
v 1.505859 1.470000 0.050000
v 0.005859 1.470000 0.050000
v -1.494141 1.470000 0.050000
v -1.494141 1.470000 -0.050000
v 0.005859 1.470000 -0.050000
v 1.505859 1.470000 -0.050000
v -1.531787 1.470000 -0.050000
v -1.531787 1.470000 0.050000
v -0.031641 1.470000 -0.050000
v -0.031641 1.470000 0.050000
v 1.468359 1.470000 -0.050000
v 1.468359 1.470000 0.050000
v 2.962646 1.470000 0.050000
v 2.962646 1.470000 -0.050000
v -3.000000 -1.464000 -0.050000
v 3.000000 -1.464000 -0.050000
v 3.000000 -1.464000 0.050000
v 1.505859 -1.464000 0.050000
v 0.005859 -1.464000 0.050000
v -1.494141 -1.464000 0.050000
v -1.494141 -1.464000 -0.050000
v 0.005859 -1.464000 -0.050000
v 1.505859 -1.464000 -0.050000
v -3.000000 -1.464000 0.050000
v -1.531787 -1.464000 0.050000
v -1.531787 -1.464000 -0.050000
v -0.031641 -1.464000 0.050000
v -0.031641 -1.464000 -0.050000
v 1.468359 -1.464000 0.050000
v 1.468359 -1.464000 -0.050000
v 2.962646 -1.464000 -0.050000
v 2.962646 -1.464000 0.050000
v -3.000000 0.602299 0.050000
v -3.000000 0.602299 -0.050000
v 3.000000 0.602299 -0.050000
v 3.000000 0.602299 0.050000
v 1.505859 0.602299 0.050000
v 0.005859 0.602299 0.050000
v -1.494141 0.602299 0.050000
v -1.494141 0.602299 -0.050000
v 0.005859 0.602299 -0.050000
v 1.505859 0.602299 -0.050000
v -1.531787 0.602299 0.050000
v -1.531787 0.602299 -0.050000
v -0.031641 0.602299 0.050000
v -0.031641 0.602299 -0.050000
v 1.468359 0.602299 0.050000
v 1.468359 0.602299 -0.050000
v 2.962646 0.602299 -0.050000
v 2.962646 0.602299 0.050000
vt 0.4341 0.5358
vt 0.4361 0.5358
vt 0.4361 0.5429
vt 0.4341 0.5429
vt 0.2339 0.9637
vt 0.2360 0.9637
vt 0.2360 0.9664
vt 0.2339 0.9664
vt 0.0105 0.7568
vt 0.0105 0.7546
vt 0.0173 0.7546
vt 0.0173 0.7568
vt 0.2380 0.6465
vt 0.2360 0.6465
vt 0.2360 0.5429
vt 0.2380 0.5429
vt 0.0173 0.5455
vt 0.0173 0.5429
vt 0.0241 0.5429
vt 0.0241 0.5455
vt 0.0310 0.8628
vt 0.0310 0.9664
vt 0.0241 0.9664
vt 0.0241 0.8628
vt 0.0310 0.5455
vt 0.0310 0.6484
vt 0.0241 0.6484
vt 0.0241 0.5455
vt 0.0310 0.6510
vt 0.0310 0.7542
vt 0.0241 0.7542
vt 0.0241 0.6510
vt 0.0310 0.7569
vt 0.0310 0.8601
vt 0.0241 0.8601
vt 0.0241 0.7569
vt 0.0173 0.8628
vt 0.0173 0.8601
vt 0.0241 0.8601
vt 0.0241 0.8628
vt 0.0173 0.7569
vt 0.0173 0.7542
vt 0.0241 0.7542
vt 0.0241 0.7569
vt 0.0173 0.6510
vt 0.0173 0.6484
vt 0.0241 0.6484
vt 0.0241 0.6510
vt 0.2380 0.9637
vt 0.2360 0.9637
vt 0.2360 0.8609
vt 0.2380 0.8609
vt 0.2380 0.8583
vt 0.2360 0.8583
vt 0.2360 0.7551
vt 0.2380 0.7551
vt 0.2380 0.7524
vt 0.2360 0.7524
vt 0.2360 0.6492
vt 0.2380 0.6492
vt 0.2339 0.6465
vt 0.2360 0.6465
vt 0.2360 0.6492
vt 0.2339 0.6492
vt 0.2339 0.7524
vt 0.2360 0.7524
vt 0.2360 0.7551
vt 0.2339 0.7551
vt 0.2339 0.8583
vt 0.2360 0.8583
vt 0.2360 0.8609
vt 0.2339 0.8609
vt 0.1926 0.8583
vt 0.1950 0.8583
vt 0.1950 0.8609
vt 0.1926 0.8609
vt 0.1926 0.7524
vt 0.1950 0.7524
vt 0.1950 0.7551
vt 0.1926 0.7551
vt 0.1926 0.6465
vt 0.1950 0.6465
vt 0.1950 0.6492
vt 0.1926 0.6492
vt 0.2794 0.7524
vt 0.2770 0.7524
vt 0.2770 0.6492
vt 0.2794 0.6492
vt 0.2794 0.8583
vt 0.2770 0.8583
vt 0.2770 0.7551
vt 0.2794 0.7551
vt 0.2794 0.9637
vt 0.2770 0.9637
vt 0.2770 0.8609
vt 0.2794 0.8609
vt 0.2794 0.6465
vt 0.2770 0.6465
vt 0.2770 0.5429
vt 0.2794 0.5429
vt 0.0105 0.7995
vt 0.0105 0.7970
vt 0.0173 0.7970
vt 0.0173 0.7995
vt 0.1926 0.9637
vt 0.1950 0.9637
vt 0.1950 0.9664
vt 0.1926 0.9664
vt 0.4361 0.5358
vt 0.4385 0.5358
vt 0.4385 0.5429
vt 0.4361 0.5429
vt 0.1926 0.5429
vt 0.1950 0.5429
vt 0.2339 0.5429
vt 0.2360 0.5429
vt 0.0173 0.9664
vt 0.0241 0.9664
vt 0.2794 0.9664
vt 0.2770 0.9664
vt 0.2380 0.9664
vt 0.2360 0.9664
vt 0.0310 0.5429
vt 0.0241 0.5429
vt 0.2806 0.3637
vt 0.2804 0.3005
vt 0.4499 0.2998
vt 0.4502 0.3630
vt 0.2797 0.3005
vt 0.2794 0.2372
vt 0.4497 0.2365
vt 0.4499 0.2998
vt 0.2794 0.2372
vt 0.2792 0.1740
vt 0.4494 0.1733
vt 0.4497 0.2365
vt 0.4431 0.9111
vt 0.4434 0.9744
vt 0.4390 0.9744
vt 0.4387 0.9112
vt 0.2781 0.0737
vt 0.2778 0.0105
vt 0.4487 0.0098
vt 0.4490 0.0730
vt 0.9934 0.6571
vt 0.9937 0.7204
vt 0.8235 0.7211
vt 0.8232 0.6578
vt 0.4490 0.0730
vt 0.4492 0.1362
vt 0.2790 0.1370
vt 0.2788 0.0737
vt 0.2809 0.4269
vt 0.2806 0.3637
vt 0.4502 0.3630
vt 0.4504 0.4262
vt 0.8188 0.6579
vt 0.8191 0.7211
vt 0.6482 0.7218
vt 0.6480 0.6586
vt 0.0026 0.9728
vt 0.0026 0.9728
vt 0.0026 0.9728
vt 0.0026 0.9728
vt 0.4410 0.9664
vt 0.4385 0.9664
vt 0.4385 0.9637
vt 0.4410 0.9637
vt 0.0310 0.8609
vt 0.0334 0.8609
vt 0.0334 0.9637
vt 0.0310 0.9637
vt 0.0310 0.7551
vt 0.0334 0.7551
vt 0.0334 0.8583
vt 0.0310 0.8583
vt 0.4410 0.8609
vt 0.4385 0.8609
vt 0.4385 0.8583
vt 0.4410 0.8583
vt 0.0310 0.6492
vt 0.0334 0.6492
vt 0.0334 0.7524
vt 0.0310 0.7524
vt 0.4410 0.7551
vt 0.4385 0.7551
vt 0.4385 0.7524
vt 0.4410 0.7524
vt 0.0310 0.5429
vt 0.0334 0.5429
vt 0.0334 0.6465
vt 0.0310 0.6465
vt 0.4410 0.6492
vt 0.4385 0.6492
vt 0.4385 0.6465
vt 0.4410 0.6465
vt 0.4385 0.5358
vt 0.4410 0.5358
vt 0.4410 0.5429
vt 0.4385 0.5429
vt 0.0334 0.9664
vt 0.0310 0.9664
vt 0.0105 0.9664
vt 0.0105 0.9638
vt 0.0173 0.9638
vt 0.0173 0.9664
vt 0.4385 0.5429
vt 0.4410 0.5429
vt 0.7217 0.4967
vt 0.9927 0.4955
vt 0.9934 0.6571
vt 0.7224 0.6583
vt 0.7217 0.4967
vt 0.4507 0.4978
vt 0.4501 0.3355
vt 0.7211 0.3344
vt 0.7211 0.3344
vt 0.9921 0.3333
vt 0.9927 0.4955
vt 0.7217 0.4967
vt 0.7204 0.1715
vt 0.9914 0.1704
vt 0.9921 0.3333
vt 0.7211 0.3344
vt 0.0026 0.9728
vt 0.0026 0.9728
vt 0.0026 0.9728
vt 0.0026 0.9728
vt 0.7197 0.0086
vt 0.9907 0.0075
vt 0.9914 0.1704
vt 0.7204 0.1715
vt 0.4507 0.4978
vt 0.7217 0.4967
vt 0.7224 0.6583
vt 0.4514 0.6594
vt 0.4487 0.0098
vt 0.7197 0.0086
vt 0.7204 0.1709
vt 0.4494 0.1720
vt 0.4494 0.1733
vt 0.7204 0.1721
vt 0.7211 0.3344
vt 0.4501 0.3355
vn -1.0000 0.0000 0.0000
vn 0.0000 0.0000 -1.0000
vn 1.0000 0.0000 0.0000
vn 0.0000 0.0000 1.0000
vn 0.0000 -1.0000 0.0000
vn 0.0000 1.0000 0.0000
usemtl Material
s off
f 55/1/1 2/2/1 4/3/1 56/4/1
f 72/5/2 49/6/2 8/7/2 57/8/2
f 57/9/3 8/10/3 6/11/3 58/12/3
f 66/13/4 32/14/4 2/15/4 55/16/4
f 51/17/5 7/18/5 5/19/5 50/20/5
f 33/21/6 4/22/6 2/23/6 32/24/6
f 49/25/6 14/26/6 18/27/6 52/28/6
f 44/29/6 13/30/6 19/31/6 46/32/6
f 38/33/6 12/34/6 20/35/6 40/36/6
f 31/37/5 11/38/5 15/39/5 34/40/5
f 37/41/5 10/42/5 16/43/5 39/44/5
f 43/45/5 9/46/5 17/47/5 45/48/5
f 71/49/4 52/50/4 18/51/4 59/52/4
f 70/53/4 46/54/4 19/55/4 60/56/4
f 68/57/4 40/58/4 20/59/4 61/60/4
f 65/61/2 33/62/2 12/63/2 62/64/2
f 67/65/2 38/66/2 13/67/2 63/68/2
f 69/69/2 44/70/2 14/71/2 64/72/2
f 106/73/2 47/74/2 30/75/2 100/76/2
f 104/77/2 41/78/2 29/79/2 99/80/2
f 102/81/2 35/82/2 28/83/2 98/84/2
f 103/85/4 42/86/4 27/87/4 97/88/4
f 105/89/4 48/90/4 26/91/4 96/92/4
f 108/93/4 53/94/4 25/95/4 95/96/4
f 101/97/4 36/98/4 21/99/4 91/100/4
f 93/101/3 23/102/3 24/103/3 94/104/3
f 107/105/2 54/106/2 23/107/2 93/108/2
f 91/109/1 21/110/1 22/111/1 92/112/1
f 97/88/4 27/87/4 36/98/4 101/97/4
f 92/113/2 22/114/2 35/82/2 102/81/2
f 56/115/2 4/116/2 33/62/2 65/61/2
f 3/117/5 31/37/5 34/40/5 1/118/5
f 12/34/6 33/21/6 32/24/6 20/35/6
f 61/60/4 20/59/4 32/14/4 66/13/4
f 96/92/4 26/91/4 42/86/4 103/85/4
f 98/84/2 28/83/2 41/78/2 104/77/2
f 62/64/2 12/63/2 38/66/2 67/65/2
f 60/56/4 19/55/4 40/58/4 68/57/4
f 11/38/5 37/41/5 39/44/5 15/39/5
f 13/30/6 38/33/6 40/36/6 19/31/6
f 95/96/4 25/95/4 48/90/4 105/89/4
f 99/80/2 29/79/2 47/74/2 106/73/2
f 63/68/2 13/67/2 44/70/2 69/69/2
f 59/52/4 18/51/4 46/54/4 70/53/4
f 10/42/5 43/45/5 45/48/5 16/43/5
f 14/26/6 44/29/6 46/32/6 18/27/6
f 100/76/2 30/75/2 54/106/2 107/105/2
f 94/119/4 24/120/4 53/94/4 108/93/4
f 58/121/4 6/122/4 52/50/4 71/49/4
f 8/123/6 49/25/6 52/28/6 6/124/6
f 9/46/5 51/17/5 50/20/5 17/47/5
f 64/72/2 14/71/2 49/6/2 72/5/2
f 30/125/2 64/126/2 72/127/2 54/128/2
f 24/120/4 58/121/4 71/49/4 53/94/4
f 25/95/4 59/52/4 70/53/4 48/90/4
f 29/129/2 63/130/2 69/131/2 47/132/2
f 26/91/4 60/56/4 68/57/4 42/86/4
f 28/133/2 62/134/2 67/135/2 41/136/2
f 27/137/4 61/138/4 66/139/4 36/140/4
f 22/141/2 56/142/2 65/143/2 35/144/2
f 47/74/2 69/69/2 64/72/2 30/75/2
f 41/78/2 67/65/2 63/68/2 29/79/2
f 35/82/2 65/61/2 62/64/2 28/83/2
f 42/145/4 68/146/4 61/147/4 27/148/4
f 48/149/4 70/150/4 60/151/4 26/152/4
f 53/153/4 71/154/4 59/155/4 25/156/4
f 36/157/4 66/158/4 55/159/4 21/160/4
f 23/102/3 57/9/3 58/12/3 24/103/3
f 54/106/2 72/5/2 57/8/2 23/107/2
f 21/161/1 55/162/1 56/163/1 22/164/1
f 5/165/4 75/166/4 90/167/4 50/168/4
f 9/169/2 81/170/2 89/171/2 51/172/2
f 10/173/2 80/174/2 88/175/2 43/176/2
f 17/177/4 76/178/4 87/179/4 45/180/4
f 11/181/2 79/182/2 86/183/2 37/184/2
f 16/185/4 77/186/4 85/187/4 39/188/4
f 3/189/2 73/190/2 84/191/2 31/192/2
f 15/193/4 78/194/4 83/195/4 34/196/4
f 1/197/1 82/198/1 73/199/1 3/200/1
f 51/172/2 89/171/2 74/201/2 7/202/2
f 7/203/3 74/204/3 75/205/3 5/206/3
f 34/196/4 83/195/4 82/207/4 1/208/4
f 50/168/4 90/167/4 76/178/4 17/177/4
f 45/180/4 87/179/4 77/186/4 16/185/4
f 39/188/4 85/187/4 78/194/4 15/193/4
f 31/192/2 84/191/2 79/182/2 11/181/2
f 37/184/2 86/183/2 80/174/2 10/173/2
f 43/176/2 88/175/2 81/170/2 9/169/2
f 75/166/4 94/119/4 108/93/4 90/167/4
f 81/209/2 100/210/2 107/211/2 89/212/2
f 80/213/2 99/214/2 106/215/2 88/216/2
f 76/178/4 95/96/4 105/89/4 87/179/4
f 79/217/2 98/218/2 104/219/2 86/220/2
f 77/186/4 96/92/4 103/85/4 85/187/4
f 73/221/2 92/222/2 102/223/2 84/224/2
f 78/194/4 97/88/4 101/97/4 83/195/4
f 82/225/1 91/226/1 92/227/1 73/228/1
f 89/171/2 107/105/2 93/108/2 74/201/2
f 74/204/3 93/101/3 94/104/3 75/205/3
f 83/229/4 101/230/4 91/231/4 82/232/4
f 90/233/4 108/234/4 95/235/4 76/236/4
f 87/237/4 105/238/4 96/239/4 77/240/4
f 85/241/4 103/242/4 97/243/4 78/244/4
f 84/191/2 102/81/2 98/84/2 79/182/2
f 86/183/2 104/77/2 99/80/2 80/174/2
f 88/175/2 106/73/2 100/76/2 81/170/2
