# Blender v2.79 (sub 0) OBJ File: 'Objeto_caixa_aberta_1.0.blend'
# www.blender.org
mtllib Objeto_caixa_aberta_1.0.mtl
o Cube
v 0.253091 -0.253091 -0.253091
v 0.253091 -0.253091 0.253091
v -0.253091 -0.253091 0.253091
v -0.253091 -0.253091 -0.253091
v 0.253091 0.253091 -0.253091
v 0.253091 0.253091 0.253091
v -0.253091 0.253091 0.253091
v -0.253091 0.253091 -0.253091
v 0.251630 -0.251630 -0.251630
v 0.251630 -0.251630 0.251630
v -0.251630 -0.251630 0.251630
v -0.251630 -0.251630 -0.251630
v 0.251302 0.253091 -0.251301
v 0.251301 0.253091 0.251302
v -0.251301 0.253091 0.251301
v -0.251301 0.253091 -0.251301
v 0.253091 0.250398 -0.253091
v 0.253091 0.250398 0.253091
v -0.253091 0.250398 0.253091
v -0.253091 0.250398 -0.253091
v 0.495420 0.173883 -0.253091
v 0.495420 0.176576 -0.253091
v 0.495420 0.173883 0.253091
v 0.495420 0.176576 0.253091
v -0.479394 0.135771 0.253091
v -0.479394 0.138464 0.253091
v -0.479394 0.135771 -0.253091
v -0.479394 0.138464 -0.253091
v 0.253091 0.124713 -0.473128
v 0.253091 0.127406 -0.473128
v 0.253091 0.099998 0.457572
v 0.253091 0.102691 0.457572
v -0.253091 0.099998 0.457571
v -0.253091 0.102691 0.457571
v -0.253091 0.124713 -0.473128
v -0.253091 0.127406 -0.473128
vn 0.0000 -1.0000 0.0000
vn -0.3011 -0.9536 -0.0000
vn 1.0000 0.0000 -0.0000
vn 0.0000 0.0000 1.0000
vn 0.0000 0.0000 -1.0000
vn 0.0000 1.0000 0.0000
vn -1.0000 -0.0007 -0.0000
vn 0.0000 -0.0007 -1.0000
vn 1.0000 -0.0007 0.0000
vn -0.0000 -0.0007 1.0000
vn -1.0000 -0.0000 -0.0000
vn 0.4519 -0.8921 0.0000
vn -0.4519 0.8921 -0.0000
vn 0.3011 0.9536 0.0000
vn 0.0000 0.8683 -0.4960
vn 0.0000 -0.8056 -0.5925
vn -0.0000 -0.8683 0.4960
vn -0.0000 0.8056 0.5925
usemtl Material
s off
f 1//1 2//1 3//1 4//1
f 18//2 17//2 21//2 23//2
f 5//3 17//3 29//3 30//3
f 6//4 18//4 23//4 24//4
f 17//5 1//5 4//5 20//5
f 9//6 12//6 11//6 10//6
f 9//7 10//7 14//7 13//7
f 10//8 11//8 15//8 14//8
f 11//9 12//9 16//9 15//9
f 13//10 16//10 12//10 9//10
f 6//6 5//6 13//6 14//6
f 5//6 8//6 16//6 13//6
f 7//6 6//6 14//6 15//6
f 8//6 7//6 15//6 16//6
f 18//3 6//3 32//3 31//3
f 3//11 19//11 20//11 4//11
f 2//4 18//4 19//4 3//4
f 1//3 17//3 18//3 2//3
f 21//3 22//3 24//3 23//3
f 25//11 26//11 28//11 27//11
f 17//5 5//5 22//5 21//5
f 20//12 19//12 25//12 27//12
f 7//13 8//13 28//13 26//13
f 8//5 20//5 27//5 28//5
f 5//14 6//14 24//14 22//14
f 19//4 7//4 26//4 25//4
f 31//4 32//4 34//4 33//4
f 30//5 29//5 35//5 36//5
f 8//15 5//15 30//15 36//15
f 20//11 8//11 36//11 35//11
f 19//16 18//16 31//16 33//16
f 17//17 20//17 35//17 29//17
f 6//18 7//18 34//18 32//18
f 7//11 19//11 33//11 34//11
