# Blender v2.79 (sub 0) OBJ File: 'Objeto_caixa_fechada_1.0.blend'
# www.blender.org
mtllib Objeto_caixa_fechada_1.0.mtl
o Cube
v 0.253091 -0.253091 -0.253091
v 0.253091 -0.253091 0.253091
v -0.253091 -0.253091 0.253091
v -0.253091 -0.253091 -0.253091
v 0.253091 0.253091 -0.253091
v 0.253091 0.253091 0.253091
v -0.253091 0.253091 0.253091
v -0.253091 0.253091 -0.253091
v 0.251630 -0.251630 -0.251630
v 0.251630 -0.251630 0.251630
v -0.251630 -0.251630 0.251630
v -0.251630 -0.251630 -0.251630
v 0.251301 0.253091 -0.251301
v 0.251301 0.253091 0.251302
v -0.251301 0.253091 0.251301
v -0.251301 0.253091 -0.251301
v 0.253091 0.250398 -0.253091
v 0.253091 0.250398 0.253091
v -0.253091 0.250398 0.253091
v -0.253091 0.250398 -0.253091
v 0.251303 0.250410 -0.251303
v 0.251303 0.250410 0.251303
v -0.251303 0.250410 0.251303
v -0.251303 0.250410 -0.251303
v 0.251303 0.264301 0.000000
v 0.251301 0.266981 0.000000
v 0.251303 0.268062 0.000000
v 0.251301 0.270743 0.000000
v -0.251303 0.268062 0.000000
v -0.251301 0.270743 0.000000
v -0.251303 0.264301 0.000000
v -0.251301 0.266981 0.000000
v 0.251307 0.245194 -0.251306
v 0.251306 0.245194 0.251307
v -0.251307 0.245194 0.251306
v -0.251307 0.245194 -0.251307
v -0.000000 0.244118 -0.251306
v -0.000000 0.249334 -0.251303
v -0.000000 0.244118 0.251307
v -0.000000 0.249334 0.251303
v -0.000000 0.245194 0.251306
v -0.000000 0.250410 0.251303
v -0.000000 0.245194 -0.251307
v -0.000000 0.250410 -0.251303
vn 0.0000 -1.0000 0.0000
vn 1.0000 0.0000 0.0000
vn -0.0000 0.0000 1.0000
vn -1.0000 0.0000 -0.0000
vn 0.0000 0.0000 -1.0000
vn 0.0000 1.0000 0.0000
vn -1.0000 -0.0007 -0.0000
vn 0.0000 -0.9975 -0.0701
vn 1.0000 -0.0006 0.0000
vn -0.0000 -0.0007 1.0000
vn -0.0000 0.9975 0.0701
vn -0.0000 0.0007 1.0000
vn 0.0000 -0.0007 -1.0000
vn 0.0000 0.0007 -1.0000
vn -0.0000 -0.9985 0.0552
vn -1.0000 0.0007 0.0000
vn 1.0000 0.0007 0.0000
vn 0.0000 0.9985 -0.0552
vn 1.0000 -0.0007 0.0000
vn 0.0043 -1.0000 0.0000
vn -0.0043 1.0000 0.0000
usemtl Material
s off
f 1//1 2//1 3//1 4//1
f 17//2 5//2 6//2 18//2
f 18//3 6//3 7//3 19//3
f 19//4 7//4 8//4 20//4
f 17//5 1//5 4//5 20//5
f 9//6 12//6 11//6 10//6
f 21//7 22//7 14//7 13//7
f 22//8 23//8 29//8 27//8
f 23//9 24//9 16//9 15//9
f 33//10 36//10 12//10 9//10
f 6//6 5//6 13//6 14//6
f 5//6 8//6 16//6 13//6
f 7//6 6//6 14//6 15//6
f 8//6 7//6 15//6 16//6
f 5//5 17//5 20//5 8//5
f 3//4 19//4 20//4 4//4
f 2//3 18//3 19//3 3//3
f 1//2 17//2 18//2 2//2
f 15//11 14//11 28//11 30//11
f 34//12 22//12 40//12 39//12
f 34//13 35//13 23//13 22//13
f 36//14 24//14 44//14 43//14
f 27//5 29//5 30//5 28//5
f 26//3 32//3 31//3 25//3
f 24//15 21//15 25//15 31//15
f 23//16 15//16 30//16 29//16
f 14//17 22//17 27//17 28//17
f 21//17 13//17 26//17 25//17
f 13//18 16//18 32//18 26//18
f 16//16 24//16 31//16 32//16
f 9//7 10//7 34//7 33//7
f 10//13 11//13 35//13 34//13
f 11//19 12//19 36//19 35//19
f 21//10 24//10 36//10 33//10
f 41//2 43//2 44//2 42//2
f 37//4 39//4 40//4 38//4
f 35//1 36//1 43//1 41//1
f 33//20 34//20 39//20 37//20
f 23//12 35//12 41//12 42//12
f 21//14 33//14 37//14 38//14
f 22//21 21//21 38//21 40//21
f 24//6 23//6 42//6 44//6
